<svg width="36" height="40" viewBox="0 0 36 40" fill="none" xmlns="http://www.w3.org/2000/svg">
<path fill-rule="evenodd" clip-rule="evenodd" d="M26.2294 13.4088L20.3454 19.2929L2.04388 0.991415C2.73659 0.5692 3.7042 0.609334 4.77097 1.21554L26.2294 13.4088ZM27.1311 13.9212L21.0524 19.9999L27.1348 26.0823L34.0225 22.169C36.118 20.9765 36.118 19.028 34.0225 17.837L27.1311 13.9212ZM26.2321 26.5937L20.3463 20.7079L2.04404 39.0131C2.73673 39.435 3.70428 39.394 4.77097 38.789L26.2321 26.5937ZM1.35368 38.2894L19.6393 20.0009L1.35315 1.71475C1.10153 2.15305 0.959473 2.72556 0.959473 3.41453V36.5885C0.959473 37.2791 1.10172 37.8514 1.35368 38.2894Z" fill="#F17228"/>
</svg>
